:SAMPLES-PER-SECOND 30
:FULLY-SPECIFIED
:DEGREES
1
root  29.6848 39.5188 4.47297 -170.331 -80.9736 163.859
RightUpLeg  -0.530856 -8.42033 -11.2231
RightLeg  4.00526 19.1154 -2.11134
RightFoot  1.22995 -0.870987 7.97164
RightToes  -1.33073e-015 0 -3.6325e-017
Spine  6.51484 0.897565 -1.05316
Spine1  1.16408 1.58195 -4.55694
HEad  -12.439 -4.46661 -4.28218
LeftShoulder1  0.135267 1.78468 0.673202
LeftArm  -19.9974 3.29439 -14.3769
LeftForeArm  -1.79962 2.34629 2.01621
LeftHand  -0.0148986 4.17874 -0.344618
RightShoulder  0.115286 -1.57058 -2.86125
RightArm  -13.207 5.6776 9.52914
RightForeArm  -1.77461 -2.26358 -3.63985
RightHand  0.154655 4.05112 1.6305
LeftUpLeg  1.6274 5.85695 -2.49049
LeftLeg  8.13034 0.149046 -0.707469
LeftFoot  -3.44462 -0.384963 5.8748
LeftToes  -1.03319e-009 7.52634e-011 -3.26162e-012
2
root  29.57 39.5696 4.24042 -170.399 -81.4532 163.95
RightUpLeg  0.0475125 -8.88476 -10.926
RightLeg  3.61054 18.9947 -2.06597
RightFoot  1.28403 -0.824617 7.52238
RightToes  -1.33073e-015 0 -3.6325e-017
Spine  6.90958 0.835858 -1.32199
Spine1  0.998937 1.39365 -3.88518
HEad  -12.8954 -4.84803 -4.08534
LeftShoulder1  0.149423 1.65015 0.430535
LeftArm  -20.1274 3.49434 -14.0965
LeftForeArm  -0.0570466 1.93456 2.05265
LeftHand  -0.0143022 4.06612 -0.810523
RightShoulder  0.0982981 -1.95657 -2.4712
RightArm  -12.796 6.31977 9.781
RightForeArm  -0.729712 -1.85935 -3.35179
RightHand  0.142799 4.33902 1.41142
LeftUpLeg  2.11826 5.88686 -2.05097
LeftLeg  7.55811 -0.458809 -0.598232
LeftFoot  -3.31233 -0.366084 5.49954
LeftToes  -1.03319e-009 7.52634e-011 -3.26162e-012
3
root  29.3635 39.6262 3.93479 -171.031 -81.6737 165.071
RightUpLeg  0.198665 -8.86751 -10.3205
RightLeg  3.20623 18.5717 -2.04029
RightFoot  1.22041 -0.754734 6.92418
RightToes  -1.33073e-015 0 -3.6325e-017
Spine  6.07502 0.953587 -1.22104
Spine1  1.49301 1.48828 -3.57838
HEad  -13.0215 -4.97456 -3.22668
LeftShoulder1  0.132173 1.93937 0.0173281
LeftArm  -20.4837 2.84469 -13.9461
LeftForeArm  1.98206 1.29105 2.04538
LeftHand  -0.0111379 3.33634 -0.412662
RightShoulder  0.122542 -1.62406 -2.2261
RightArm  -12.0527 5.87154 9.91202
RightForeArm  0.0752702 -1.48843 -3.10887
RightHand  0.10556 3.67669 1.09287
LeftUpLeg  2.32824 6.13113 -1.37051
LeftLeg  6.92188 -1.02659 -0.587707
LeftFoot  -3.2105 -0.357651 5.26884
LeftToes  -1.03319e-009 7.52634e-011 -3.26162e-012
4
root  29.1439 39.6748 3.64658 -170.883 -82.1266 165.581
RightUpLeg  0.487687 -8.9168 -9.81858
RightLeg  2.27527 18.0066 -2.17817
RightFoot  1.13084 -0.712557 6.58449
RightToes  -1.33073e-015 0 -3.6325e-017
Spine  5.02338 1.02011 -0.769674
Spine1  1.78387 1.65972 -3.87423
HEad  -12.0105 -5.34491 -2.77626
LeftShoulder1  0.13506 1.86212 0.267745
LeftArm  -20.6667 2.32879 -14.3029
LeftForeArm  0.45228 1.06749 2.0313
LeftHand  -0.0221868 3.65679 0.153273
RightShoulder  0.112344 -1.88611 -1.76643
RightArm  -11.3502 5.98148 9.90617
RightForeArm  0.532598 -2.21385 -2.96314
RightHand  0.147045 4.20159 1.5048
LeftUpLeg  2.34694 6.09534 -0.885609
LeftLeg  6.22504 -1.68161 -0.40424
LeftFoot  -3.20217 -0.30936 4.48136
LeftToes  -1.03319e-009 7.52634e-011 -3.26162e-012
5
root  28.9773 39.735 3.38261 -170.537 -82.9278 165.736
RightUpLeg  1.06481 -9.059 -9.45299
RightLeg  1.24074 17.3006 -2.14873
RightFoot  1.11841 -0.676952 6.26468
RightToes  -1.33073e-015 0 -3.6325e-017
Spine  4.6671 0.939912 -0.627966
Spine1  1.42407 1.49405 -3.32788
HEad  -11.739 -6.57487 -2.70436
LeftShoulder1  0.157091 1.62779 0.0942321
LeftArm  -20.8401 2.10509 -14.2257
LeftForeArm  -0.922791 0.933924 2.08191
LeftHand  -0.0231324 4.24538 -0.0301117
RightShoulder  0.107827 -1.82164 -2.3809
RightArm  -11.4124 5.5989 10.2723
RightForeArm  0.912354 -3.3371 -3.22873
RightHand  0.169832 3.78697 1.88816
LeftUpLeg  2.41172 5.9792 -0.443685
LeftLeg  5.4875 -2.37417 -0.15512
LeftFoot  -2.93551 -0.276883 3.97218
LeftToes  -1.03319e-009 7.52634e-011 -3.26162e-012
6
root  28.8409 39.7706 3.13988 -170.072 -83.71 165.616
RightUpLeg  1.62092 -8.97049 -9.03144
RightLeg  0.407273 16.3294 -2.26124
RightFoot  0.929646 -0.655653 6.15193
RightToes  -1.33073e-015 0 -3.6325e-017
Spine  4.46289 0.756369 -0.310253
Spine1  1.3977 1.30886 -3.20631
HEad  -10.8757 -6.37687 -2.93895
LeftShoulder1  0.142643 1.74668 0.365615
LeftArm  -20.8774 1.45656 -14.2478
LeftForeArm  0.0417661 1.41973 2.09499
LeftHand  -0.0196466 4.29642 -0.436135
RightShoulder  0.103985 -1.83595 -2.58136
RightArm  -11.4776 5.46487 9.98538
RightForeArm  0.0414706 -4.51985 -3.41283
RightHand  0.196645 3.53487 2.30161
LeftUpLeg  2.33461 5.9501 -0.00975878
LeftLeg  5.26674 -3.18668 -0.0190324
LeftFoot  -2.87115 -0.26637 3.83205
LeftToes  -1.03319e-009 7.52634e-011 -3.26162e-012
7
root  28.7282 39.7933 2.90319 -169.295 -84.18 165.12
RightUpLeg  1.61097 -8.93593 -8.70011
RightLeg  0.576673 15.7598 -2.06865
RightFoot  0.675773 -0.601898 5.75556
RightToes  -1.33073e-015 0 -3.6325e-017
Spine  4.54886 0.700151 0.112792
Spine1  1.20608 1.3206 -3.43662
HEad  -11.3151 -6.35781 -2.60057
LeftShoulder1  0.155372 1.4894 0.850024
LeftArm  -20.5698 1.56497 -14.0102
LeftForeArm  1.10745 1.37094 1.90807
LeftHand  -0.0191747 4.09171 -0.304343
RightShoulder  0.0953223 -2.02772 -2.33602
RightArm  -12.0837 5.17537 9.22823
RightForeArm  -0.0897301 -4.74317 -3.74254
RightHand  0.17143 3.03465 2.13597
LeftUpLeg  2.34816 5.89687 0.32269
LeftLeg  4.96132 -3.6736 0.13948
LeftFoot  -2.86694 -0.230783 3.34684
LeftToes  -1.03319e-009 7.52634e-011 -3.26162e-012
8
root  28.6475 39.7975 2.68497 -168.904 -84.2698 164.937
RightUpLeg  1.20372 -8.6833 -8.2688
RightLeg  1.34659 15.2845 -1.92528
RightFoot  0.316984 -0.526817 5.17713
RightToes  -1.33073e-015 0 -3.6325e-017
Spine  4.74691 0.747478 0.113968
Spine1  1.20713 1.31196 -3.08799
HEad  -11.7832 -5.68839 -3.11346
LeftShoulder1  0.15375 1.55487 0.645396
LeftArm  -20.638 1.7912 -13.5943
LeftForeArm  0.635385 1.08154 1.92429
LeftHand  -0.0228541 4.12851 0.0331323
RightShoulder  0.0959453 -2.00571 -2.40755
RightArm  -12.2384 4.6603 8.34909
RightForeArm  -0.788635 -4.27414 -3.79145
RightHand  0.195888 3.34471 2.36665
LeftUpLeg  2.31639 5.869 0.58001
LeftLeg  4.85032 -3.79227 0.306847
LeftFoot  -2.89169 -0.209759 3.0843
LeftToes  -1.03319e-009 7.52634e-011 -3.26162e-012
9
root  28.5702 39.8064 2.49788 -168.266 -84.3475 164.327
RightUpLeg  1.10349 -8.61843 -8.05207
RightLeg  1.86867 15.0371 -1.73548
RightFoot  0.0192396 -0.473885 4.76264
RightToes  -1.33073e-015 0 -3.6325e-017
Spine  5.09317 0.668118 0.0951708
Spine1  1.14539 1.17423 -2.77603
HEad  -12.2528 -5.47162 -3.35348
LeftShoulder1  0.140726 1.72795 0.603015
LeftArm  -21.1202 2.29789 -13.612
LeftForeArm  -0.340158 0.909873 2.27004
LeftHand  -0.0241568 4.10396 0.208337
RightShoulder  0.0814106 -2.11316 -3.03303
RightArm  -12.9341 4.29268 8.53103
RightForeArm  -1.26143 -3.503 -3.98575
RightHand  0.16486 3.71681 1.83914
LeftUpLeg  2.55906 6.03954 0.89343
LeftLeg  4.60691 -4.10456 0.255132
LeftFoot  -2.8774 -0.196395 2.9385
LeftToes  -1.03319e-009 7.52634e-011 -3.26162e-012
10
root  28.4749 39.8228 2.32825 -168.495 -84.3899 164.732
RightUpLeg  1.01588 -8.66945 -7.86466
RightLeg  2.10763 15.0907 -1.467
RightFoot  -0.16023 -0.44502 4.53201
RightToes  -1.33073e-015 0 -3.6325e-017
Spine  4.73686 0.627597 0.15842
Spine1  1.68584 1.07757 -2.38271
HEad  -12.7089 -5.23823 -3.61323
LeftShoulder1  0.133731 1.88623 0.208955
LeftArm  -20.9186 2.40362 -13.1538
LeftForeArm  -1.31754 1.02859 2.18106
LeftHand  -0.0266234 4.22432 0.446459
RightShoulder  0.0848084 -1.96763 -3.43148
RightArm  -12.8481 4.18208 8.30361
RightForeArm  -1.80097 -3.19848 -3.89071
RightHand  0.154328 3.48214 1.76821
LeftUpLeg  2.70892 5.89179 1.05405
LeftLeg  4.24289 -4.04967 0.577865
LeftFoot  -2.85967 -0.158673 2.40599
LeftToes  -1.03319e-009 7.52634e-011 -3.26162e-012
11
root  28.3694 39.8388 2.15339 -168.945 -84.6445 165.245
RightUpLeg  1.33022 -8.63388 -7.57687
RightLeg  1.8898 14.7252 -1.39536
RightFoot  -0.277754 -0.419667 4.31069
RightToes  -1.33073e-015 0 -3.6325e-017
Spine  4.38908 0.551881 0.213464
Spine1  2.15013 0.952135 -2.06286
HEad  -12.3182 -5.35924 -3.46918
LeftShoulder1  0.123851 2.02316 0.0840338
LeftArm  -20.7585 2.22058 -12.9422
LeftForeArm  -1.44829 1.26782 2.10673
LeftHand  -0.0304824 4.30768 -0.019164
RightShoulder  0.0777752 -2.04612 -3.63163
RightArm  -13.1175 4.24345 8.35833
RightForeArm  -1.49309 -2.91875 -3.96039
RightHand  0.200678 3.75324 2.28738
LeftUpLeg  3.03705 6.1073 1.51476
LeftLeg  3.79798 -4.59934 0.555894
LeftFoot  -2.86245 -0.125396 1.92065
LeftToes  -1.03319e-009 7.52634e-011 -3.26162e-012
12
root  28.2632 39.8539 1.99195 -168.849 -84.819 165.315
RightUpLeg  1.49209 -8.54616 -7.30296
RightLeg  1.68764 14.4058 -1.40434
RightFoot  -0.371214 -0.398871 4.12472
RightToes  -1.33073e-015 0 -3.6325e-017
Spine  4.11904 0.582641 0.436784
Spine1  2.16228 1.01989 -2.17112
HEad  -11.6142 -5.46366 -3.33868
LeftShoulder1  0.140444 1.71168 0.716589
LeftArm  -20.9832 2.46282 -13.6028
LeftForeArm  -1.09068 1.41322 2.307
LeftHand  -0.0305978 4.28102 0.273529
RightShoulder  0.0781301 -2.15231 -3.13609
RightArm  -12.7756 4.3469 8.00752
RightForeArm  -1.89318 -2.82023 -3.77411
RightHand  0.16861 3.50762 1.95127
LeftUpLeg  3.20536 6.07027 1.72772
LeftLeg  3.43996 -4.74068 0.74749
LeftFoot  -2.80005 -0.112031 1.70609
LeftToes  -1.03319e-009 7.52634e-011 -3.26162e-012
13
root  28.1597 39.87 1.82244 -170.271 -84.7841 166.728
RightUpLeg  1.73527 -8.33793 -6.89443
RightLeg  1.60185 14.1958 -1.46872
RightFoot  -0.4343 -0.371376 3.85627
RightToes  -1.33073e-015 0 -3.6325e-017
Spine  3.98767 0.608638 0.507621
Spine1  2.15082 1.03797 -2.05363
HEad  -10.5759 -6.02252 -3.38265
LeftShoulder1  0.152986 1.59223 0.513192
LeftArm  -20.7649 2.58444 -13.2501
LeftForeArm  -1.05483 1.39125 2.20144
LeftHand  -0.0231398 3.47248 -0.0776285
RightShoulder  0.0932413 -1.89081 -3.11515
RightArm  -13.1409 4.24828 8.52395
RightForeArm  -1.49885 -2.85301 -3.94202
RightHand  0.172211 3.52856 1.99151
LeftUpLeg  3.54786 6.19166 2.11566
LeftLeg  3.15717 -4.85252 0.838552
LeftFoot  -2.75563 -0.108876 1.64375
LeftToes  -1.03319e-009 7.52634e-011 -3.26162e-012
14
root  28.0842 39.8777 1.69189 -170.733 -84.911 167.171
RightUpLeg  1.88548 -8.22737 -6.63653
RightLeg  1.70301 13.9224 -1.44014
RightFoot  -0.550536 -0.344571 3.60679
RightToes  -1.33073e-015 0 -3.6325e-017
Spine  3.93721 0.599258 0.54953
Spine1  2.31564 0.998627 -1.84937
HEad  -10.3401 -6.14667 -2.92714
LeftShoulder1  0.138269 1.80177 0.372448
LeftArm  -20.7021 2.26202 -13.3335
LeftForeArm  -1.0962 1.22285 2.06357
LeftHand  -0.0299909 4.11258 0.369809
RightShoulder  0.0884006 -1.99799 -3.02772
RightArm  -12.641 4.66438 8.74855
RightForeArm  -1.76571 -3.19722 -3.70471
RightHand  0.172321 3.42383 2.02446
LeftUpLeg  3.75084 6.31099 2.40916
LeftLeg  3.03611 -5.09591 0.862869
LeftFoot  -2.70966 -0.104386 1.60129
LeftToes  -1.03319e-009 7.52634e-011 -3.26162e-012
15
root  28.017 39.8766 1.57051 -171.758 -84.9144 168.252
RightUpLeg  1.88862 -8.1242 -6.35982
RightLeg  1.85501 13.7739 -1.36937
RightFoot  -0.728407 -0.331197 3.50949
RightToes  -1.33073e-015 0 -3.6325e-017
Spine  3.67546 0.639277 0.805995
Spine1  2.65897 1.05672 -1.85955
HEad  -10.4717 -6.38407 -2.80388
LeftShoulder1  0.12999 1.92211 0.255997
LeftArm  -20.6179 1.83328 -13.4736
LeftForeArm  -0.981142 1.39162 1.9718
LeftHand  -0.0327164 4.30029 0.418716
RightShoulder  0.0804795 -2.08197 -3.2823
RightArm  -12.5561 4.82853 9.43346
RightForeArm  -1.25571 -3.40963 -3.69953
RightHand  0.175073 3.54827 2.02123
LeftUpLeg  3.72449 6.1998 2.57103
LeftLeg  3.20404 -4.97626 1.10876
LeftFoot  -2.85436 -0.0774193 1.27537
LeftToes  -1.03319e-009 7.52634e-011 -3.26162e-012
